<svg width="146" height="125" viewBox="0 0 146 125" fill="none" xmlns="http://www.w3.org/2000/svg">
<path d="M131.111 117.457C123.713 111.837 111.065 97.8901 127.723 76.0002C148.325 48.9289 123.653 37.8208 100.003 38.9789C80.9783 39.9206 59.5642 15.9974 38.2033 20.2869C9.85417 25.9441 28.2633 50.3731 9.03887 63.5277C-7.35365 74.7323 -0.315453 108.912 21.0188 117.457H131.111Z" fill="#DCEDF9"/>
<path d="M143.9 67.6837C143.787 63.6704 140.046 62.113 137.551 65.0215C135.778 67.049 134.708 69.5945 134.499 72.2793C133.917 79.434 140.183 77.3575 142.525 73.5306C143.52 71.8933 143.953 69.7136 143.9 67.6837Z" fill="#DCEDF9"/>
<path d="M67.9698 14.6285C63.9566 14.7349 62.3925 18.472 65.3076 20.9745C67.3322 22.7493 69.8751 23.824 72.5588 24.0394C79.7135 24.625 77.6503 18.3589 73.8234 16.0128C72.1795 15.0045 69.9998 14.5686 67.9698 14.6285Z" fill="#DCEDF9"/>
<path d="M12.9952 53.6207C14.5758 49.9302 11.8304 46.9652 8.3363 48.5392C5.87725 49.6429 3.83965 51.5101 2.52603 53.8636C-0.994731 60.1231 5.56095 60.8519 9.29136 58.3661C10.892 57.2846 12.1965 55.4876 12.9952 53.6207Z" fill="#DCEDF9"/>
<path d="M73.2177 124.987C110.572 124.987 140.854 122.55 140.854 119.543C140.854 116.536 110.572 114.099 73.2177 114.099C35.863 114.099 5.58105 116.536 5.58105 119.543C5.58105 122.55 35.863 124.987 73.2177 124.987Z" fill="#DCEDF9"/>
<path d="M119.577 118.598C119.672 119.104 119.83 119.595 120.046 120.062H131.028C131.26 119.585 131.363 119.056 131.326 118.527C131.289 117.997 131.114 117.487 130.818 117.047C126.825 111.347 131.753 111.46 132.535 107.563C133.394 103.29 129.324 105.5 130.559 99.776C132.223 92.019 128.602 88.2953 126.768 92.7711C125.035 96.994 125.926 98.7245 121.687 101.892C118.173 104.518 124.306 108.721 120.825 112.874C119.344 114.641 119.224 116.754 119.577 118.598Z" fill="#007FE9"/>
<path d="M124.305 120.062C125.553 110.012 127.743 99.0308 127.773 98.8844C127.78 98.8487 127.78 98.8121 127.773 98.7764C127.766 98.7407 127.752 98.7068 127.732 98.6765C127.712 98.6462 127.686 98.6202 127.656 98.5999C127.626 98.5796 127.592 98.5654 127.556 98.5582C127.521 98.551 127.484 98.5509 127.448 98.5579C127.413 98.5648 127.379 98.5788 127.349 98.5988C127.318 98.6189 127.292 98.6448 127.272 98.6749C127.252 98.7051 127.237 98.7389 127.23 98.7745C127.2 98.921 124.997 109.966 123.746 120.072L124.305 120.062Z" fill="#0050DB"/>
<path d="M137.646 120.062C137.623 119.979 137.6 119.896 137.57 119.816C134.678 111.34 140.734 113.254 143.1 108.728C145.696 103.759 139.876 105.024 143.456 98.4118C148.312 89.4268 145.17 83.5334 141.293 88.4019C137.633 92.9942 138.115 95.4468 131.746 97.8328C126.465 99.8128 132.525 107.207 126.735 111.081C124.265 112.744 123.36 115.297 123.131 117.699C123.055 118.492 123.096 119.292 123.254 120.072L137.646 120.062Z" fill="#3B8EE8"/>
<path d="M128.924 120.062C133.999 108.445 140.239 96.4615 140.328 96.2951C140.35 96.2536 140.364 96.2082 140.368 96.1615C140.372 96.1148 140.367 96.0676 140.353 96.0228C140.34 95.978 140.317 95.9364 140.287 95.9003C140.257 95.8643 140.22 95.8344 140.179 95.8126C140.137 95.7907 140.092 95.7773 140.045 95.773C139.998 95.7687 139.951 95.7736 139.906 95.7875C139.862 95.8014 139.82 95.824 139.784 95.854C139.748 95.884 139.718 95.9208 139.696 95.9623C139.61 96.1287 133.257 108.322 128.146 120.059L128.924 120.062Z" fill="#007FE9"/>
<path d="M26.7064 118.598C26.6112 119.103 26.4547 119.595 26.2405 120.062H15.2589C14.8263 119.03 14.8263 117.959 15.4652 117.047C19.4585 111.347 14.5301 111.46 13.7481 107.563C12.8928 103.29 16.9627 105.5 15.7447 99.776C14.0809 92.019 17.6981 88.2953 19.5351 92.7711C21.2688 96.994 20.377 98.7245 24.6132 101.892C28.1273 104.518 21.9943 108.721 25.4784 112.874C26.9426 114.641 27.0591 116.754 26.7064 118.598Z" fill="#007FE9"/>
<path d="M21.9802 120.062C20.7323 110.012 18.5393 99.0308 18.5094 98.8844C18.502 98.8151 18.5207 98.7456 18.562 98.6894C18.6032 98.6332 18.6639 98.5944 18.7322 98.5807C18.8005 98.5669 18.8715 98.5792 18.9312 98.6151C18.991 98.6509 19.0352 98.7078 19.0551 98.7746C19.0851 98.921 21.2881 109.966 22.5393 120.072L21.9802 120.062Z" fill="#0050DB"/>
<path d="M8.63941 120.062C8.65938 119.979 8.686 119.896 8.71262 119.816C11.6044 111.34 5.55125 113.254 3.18522 108.728C0.589569 103.759 6.40981 105.024 2.82915 98.4118C-2.02605 89.4268 1.11535 83.5334 4.98886 88.4019C8.64939 92.9942 8.16687 95.4468 14.5362 97.8328C19.8207 99.8128 13.7575 107.207 19.5511 111.081C22.0203 112.744 22.9255 115.297 23.1518 117.699C23.2309 118.492 23.1893 119.292 23.0286 120.072L8.63941 120.062Z" fill="#3B8EE8"/>
<path d="M17.3522 120.062C12.2773 108.445 6.03779 96.4613 5.94794 96.2949C5.90827 96.2119 5.90222 96.1169 5.93105 96.0296C5.95988 95.9423 6.02136 95.8695 6.10263 95.8265C6.1839 95.7835 6.27865 95.7736 6.36705 95.7989C6.45544 95.8242 6.53064 95.8826 6.57689 95.9621C6.66674 96.1285 13.0194 108.321 18.1275 120.058L17.3522 120.062Z" fill="#007FE9"/>
<path d="M40.5533 120.059H41.4052L40.1041 116.458C40.429 114.188 41.2113 112.008 42.4036 110.049C44.7896 106.056 45.3985 103.25 43.4019 103.267C40.8129 103.287 38.956 109.59 39.4984 114.781L36.4435 106.222C36.5667 105.117 37.0192 103.001 38.6299 100.342C40.7596 96.8212 42.4069 92.6881 39.7846 92.9177C37.1623 93.1473 35.2688 99.4867 35.9178 104.735L33.372 97.5999C33.5556 96.2744 34.0257 95.0048 34.7497 93.8794C36.0808 91.6598 37.1291 89.0609 35.4785 89.2006C33.8279 89.3404 32.6233 93.3603 33.0426 96.6748L32.5002 95.1606C32.0076 90.6016 28.8629 85.5534 26.9395 85.9727C25.016 86.392 26.9029 89.3005 29.392 91.8662C30.2742 92.8248 31.0261 93.8956 31.6283 95.0508L32.6765 97.9859C30.803 95.7031 28.0643 94.0658 26.8762 94.8811C25.5052 95.8162 27.9544 97.1739 30.4003 98.0391C31.4139 98.3847 32.3671 98.8866 33.2256 99.5266L36.4602 108.588C33.5184 104.518 28.61 101.377 26.5734 102.771C24.4004 104.259 28.2872 106.412 32.1674 107.786C33.9903 108.394 35.6834 109.337 37.159 110.568L39.6781 117.623C36.8395 113.177 31.412 109.517 29.2423 111.001C27.0726 112.485 30.9594 114.641 34.8362 116.016C37.7314 117.041 39.4152 118.368 40.2239 119.15L40.5533 120.059Z" fill="#3B8EE8"/>
<path d="M103.534 103.001L102.715 102.848L104.629 99.5468C104.72 97.2569 104.345 94.9723 103.527 92.8314C101.907 88.4821 101.817 85.6002 103.777 85.9763C106.323 86.4688 107.001 93.0011 105.527 98.0094L110.086 90.1493C110.163 89.0378 110.103 86.8781 109.001 83.9696C107.547 80.1227 106.672 75.7634 109.218 76.4622C111.763 77.161 112.469 83.7333 110.882 88.7749L114.682 82.2192C114.746 80.883 114.519 79.5487 114.016 78.3091C113.098 75.8865 112.552 73.1378 114.149 73.577C115.747 74.0163 116.203 78.186 115.188 81.3706L115.993 79.983C117.324 75.5903 121.317 71.1977 123.131 71.9597C124.945 72.7218 122.565 75.2276 119.65 77.3108C118.609 78.0912 117.675 79.0066 116.875 80.0329L115.281 82.7317C117.537 80.8249 120.532 79.7134 121.55 80.735C122.725 81.9064 120.07 82.7949 117.51 83.2042C116.451 83.3571 115.422 83.6772 114.462 84.1526L109.634 92.472C113.268 89.0078 118.665 86.8149 120.412 88.5519C122.279 90.4088 118.066 91.8165 114.003 92.4654C112.097 92.7317 110.257 93.3513 108.579 94.2923L104.832 100.765C108.429 96.9113 114.432 94.2956 116.296 96.1492C118.159 98.0028 113.946 99.4171 109.883 100.063C106.852 100.545 104.955 101.547 104.016 102.169L103.534 103.001Z" fill="#3B8EE8"/>
<path d="M66.4353 95.6318L66.3984 122.051L104.644 122.104L104.681 95.6852L66.4353 95.6318Z" fill="#FFAA01"/>
<path d="M104.681 95.6962L104.678 97.3867L85.5335 114.308L66.4355 97.3335L66.4389 95.6396L85.5335 112.674L104.681 95.6962Z" fill="#F88800"/>
<path d="M81.8568 109.333L67.5076 122.058L66.3994 122.055L66.4027 121.383L81.0349 108.404L81.8568 109.333Z" fill="#F88800"/>
<path d="M104.645 121.526V122.112L103.437 122.108L89.124 109.343L89.9493 108.418L104.645 121.526Z" fill="#F88800"/>
<path d="M66.4355 95.6396L85.5335 112.674L104.681 95.6929L66.4355 95.6396Z" fill="#FDCC50"/>
<path d="M81.4803 5.22442C81.4443 5.23402 81.4064 5.23402 81.3705 5.22442C80.9811 5.06136 80.7548 4.98482 80.7515 4.98482C80.6951 4.96511 80.6486 4.92419 80.6219 4.87076C80.5952 4.81733 80.5903 4.75558 80.6084 4.69864C80.6274 4.64172 80.6682 4.59467 80.7219 4.56783C80.7755 4.541 80.8377 4.53658 80.8946 4.55555C80.8946 4.55555 81.1409 4.63541 81.5601 4.80845C81.6152 4.83192 81.6588 4.87627 81.6812 4.93179C81.7037 4.9873 81.7032 5.04945 81.6799 5.10462C81.6609 5.14105 81.6322 5.17152 81.597 5.19266C81.5618 5.2138 81.5214 5.22479 81.4803 5.22442Z" fill="#DCEDF9"/>
<path d="M93.0311 17.3813C93.1842 17.794 93.3306 18.2166 93.4604 18.6425C93.4761 18.6925 93.5084 18.7356 93.552 18.7646C93.5956 18.7937 93.6478 18.807 93.7 18.8023H93.7432C93.7716 18.7935 93.798 18.7793 93.8209 18.7603C93.8438 18.7414 93.8628 18.7181 93.8767 18.6919C93.8906 18.6656 93.8992 18.6368 93.902 18.6073C93.9048 18.5777 93.9017 18.5478 93.893 18.5194C93.7599 18.0868 93.6134 17.6542 93.457 17.2316C93.4466 17.2036 93.4307 17.178 93.4103 17.1562C93.3899 17.1343 93.3654 17.1167 93.3382 17.1044C93.311 17.092 93.2816 17.0851 93.2518 17.0841C93.2219 17.0831 93.1922 17.088 93.1642 17.0985C93.1362 17.109 93.1106 17.1248 93.0888 17.1452C93.0669 17.1656 93.0494 17.1901 93.037 17.2173C93.0246 17.2445 93.0177 17.2739 93.0167 17.3037C93.0157 17.3336 93.0206 17.3633 93.0311 17.3913V17.3813Z" fill="#DCEDF9"/>
<path d="M93.8137 19.9264C93.9168 20.3524 94.0133 20.7917 94.0932 21.2276C94.1037 21.2837 94.1348 21.3339 94.1803 21.3684C94.2258 21.4028 94.2826 21.4191 94.3394 21.4139H94.3561C94.3854 21.4087 94.4134 21.3978 94.4384 21.3817C94.4635 21.3657 94.4851 21.3449 94.5021 21.3205C94.5191 21.296 94.5311 21.2685 94.5375 21.2394C94.5438 21.2104 94.5444 21.1803 94.5391 21.1511C94.4559 20.7018 94.3594 20.2559 94.2563 19.82C94.2493 19.7908 94.2365 19.7633 94.2188 19.7391C94.2011 19.7149 94.1787 19.6944 94.153 19.6789C94.1273 19.6635 94.0988 19.6532 94.0691 19.6489C94.0394 19.6445 94.0091 19.6461 93.98 19.6536C93.951 19.6602 93.9236 19.6726 93.8994 19.69C93.8752 19.7074 93.8548 19.7294 93.8392 19.7549C93.8237 19.7803 93.8135 19.8086 93.8091 19.8381C93.8047 19.8675 93.8062 19.8976 93.8137 19.9264Z" fill="#DCEDF9"/>
<path d="M94.7715 26.7718C94.8262 26.7653 94.8767 26.7391 94.9134 26.6981C94.9502 26.657 94.9707 26.604 94.9711 26.5489C94.9711 26.093 94.9711 25.6371 94.9711 25.1911C94.9711 25.1311 94.9473 25.0736 94.9049 25.0311C94.8624 24.9887 94.8049 24.9648 94.7448 24.9648C94.6848 24.9648 94.6273 24.9887 94.5848 25.0311C94.5424 25.0736 94.5186 25.1311 94.5186 25.1911C94.5186 25.6304 94.5352 26.0796 94.5186 26.5222C94.5185 26.582 94.5418 26.6394 94.5834 26.6823C94.6251 26.7252 94.6818 26.7501 94.7415 26.7518L94.7715 26.7718Z" fill="#DCEDF9"/>
<path d="M94.495 22.2827C94.4655 22.2864 94.437 22.2959 94.4112 22.3106C94.3853 22.3253 94.3626 22.3449 94.3444 22.3684C94.3262 22.3919 94.3127 22.4188 94.3049 22.4475C94.297 22.4761 94.2949 22.5061 94.2987 22.5356C94.3253 22.7419 94.3519 22.9482 94.3719 23.1512C94.3918 23.3542 94.4185 23.6238 94.4384 23.8634C94.4405 23.893 94.4485 23.9219 94.4619 23.9484C94.4753 23.9748 94.4939 23.9984 94.5165 24.0176C94.5391 24.0368 94.5654 24.0513 94.5937 24.0603C94.622 24.0692 94.6518 24.0724 94.6814 24.0697C94.7396 24.063 94.793 24.0339 94.8303 23.9886C94.8675 23.9432 94.8857 23.8852 94.881 23.8267C94.8644 23.5872 94.8411 23.3409 94.8145 23.1046C94.7878 22.8684 94.7679 22.6853 94.7413 22.4757C94.7338 22.4176 94.7037 22.3648 94.6577 22.3287C94.6116 22.2926 94.5532 22.2761 94.495 22.2827Z" fill="#DCEDF9"/>
<path d="M92.525 16.1489C92.545 16.1927 92.5782 16.2291 92.62 16.253C92.6618 16.2769 92.7101 16.2871 92.758 16.282C92.7801 16.2847 92.8024 16.2847 92.8245 16.282C92.8519 16.2701 92.8767 16.2529 92.8974 16.2313C92.9181 16.2098 92.9343 16.1844 92.9451 16.1565C92.956 16.1287 92.9612 16.099 92.9605 16.0691C92.9597 16.0392 92.9531 16.0098 92.941 15.9825C92.7546 15.5665 92.555 15.1572 92.3453 14.7579C92.3315 14.7315 92.3127 14.708 92.2899 14.6888C92.267 14.6697 92.2406 14.6552 92.2122 14.6462C92.1838 14.6373 92.1539 14.634 92.1242 14.6366C92.0945 14.6392 92.0656 14.6476 92.0392 14.6614C92.0127 14.6752 91.9892 14.694 91.9701 14.7168C91.9509 14.7397 91.9365 14.7661 91.9275 14.7945C91.9185 14.8229 91.9153 14.8528 91.9179 14.8825C91.9205 14.9122 91.9289 14.9411 91.9426 14.9675C92.149 15.3436 92.3453 15.7462 92.525 16.1489Z" fill="#DCEDF9"/>
<path d="M82.5723 5.77062C82.9617 5.97029 83.3543 6.18659 83.7404 6.41621C83.7925 6.44674 83.8546 6.45548 83.9132 6.44053C83.9717 6.42558 84.022 6.38814 84.0532 6.33634C84.0835 6.28469 84.0922 6.22311 84.0772 6.16509C84.0622 6.10707 84.0249 6.05736 83.9733 6.02686C83.5773 5.79392 83.178 5.57096 82.7786 5.36131C82.7254 5.33567 82.6643 5.33184 82.6083 5.35065C82.5524 5.36945 82.5059 5.4094 82.479 5.46196C82.4521 5.51452 82.4468 5.57553 82.4642 5.63196C82.4816 5.68839 82.5204 5.73576 82.5723 5.76397V5.77062Z" fill="#DCEDF9"/>
<path d="M85.9502 7.90681C85.997 7.94171 86.0554 7.95721 86.1133 7.95007C86.1438 7.94665 86.1733 7.93725 86.2001 7.9224C86.2269 7.90756 86.2506 7.88756 86.2697 7.86355C86.2897 7.83928 86.3045 7.81115 86.3132 7.78092C86.322 7.75068 86.3244 7.71897 86.3203 7.68776C86.3162 7.65656 86.3058 7.62652 86.2897 7.59952C86.2735 7.57251 86.252 7.54911 86.2264 7.53077C85.867 7.25789 85.4976 6.99168 85.1216 6.73877C85.0717 6.70523 85.0106 6.69287 84.9516 6.70442C84.8926 6.71596 84.8407 6.75046 84.8071 6.80033C84.7736 6.85019 84.7612 6.91134 84.7728 6.97032C84.7843 7.02929 84.8188 7.08126 84.8687 7.1148C85.2347 7.37437 85.6008 7.64059 85.9502 7.90681Z" fill="#DCEDF9"/>
<path d="M87.97 9.63675C87.9938 9.65936 88.0222 9.67668 88.0531 9.68757C88.0841 9.69847 88.117 9.7027 88.1497 9.69998C88.1924 9.69493 88.2329 9.678 88.2664 9.65111C88.2999 9.62422 88.3253 9.58846 88.3395 9.54789C88.3537 9.50732 88.3562 9.46357 88.3468 9.42162C88.3374 9.37968 88.3164 9.34122 88.2862 9.31063C87.9534 8.99782 87.6206 8.68834 87.2879 8.39217C87.2651 8.37059 87.2381 8.35397 87.2086 8.34337C87.179 8.33278 87.1476 8.32844 87.1163 8.33063C87.085 8.33282 87.0546 8.34149 87.0268 8.3561C86.999 8.3707 86.9746 8.39092 86.9551 8.41546C86.934 8.43845 86.9177 8.46551 86.9074 8.49498C86.8971 8.52445 86.8929 8.55572 86.8951 8.58687C86.8973 8.61801 86.9058 8.64839 86.9201 8.67614C86.9344 8.70388 86.9543 8.72842 86.9784 8.74824C87.3278 9.03443 87.6606 9.33725 87.97 9.63675Z" fill="#DCEDF9"/>
<path d="M89.7608 11.6334C89.7845 11.6629 89.8152 11.6859 89.8501 11.7004C89.885 11.715 89.9229 11.7205 89.9605 11.7166C90.0038 11.7136 90.0449 11.696 90.077 11.6667C90.1034 11.6489 90.1255 11.6255 90.142 11.5983C90.1584 11.571 90.1688 11.5405 90.1723 11.5088C90.1757 11.4771 90.1723 11.4451 90.1622 11.4149C90.152 11.3847 90.1355 11.3571 90.1136 11.334C89.8307 10.9812 89.5346 10.6318 89.2317 10.299C89.1899 10.262 89.136 10.2418 89.0802 10.2422C89.0244 10.2426 88.9707 10.2636 88.9295 10.3011C88.8882 10.3387 88.8623 10.3901 88.8566 10.4456C88.851 10.5011 88.8661 10.5568 88.899 10.6018C89.1918 10.9313 89.4846 11.2707 89.7608 11.6334Z" fill="#DCEDF9"/>
<path d="M91.2879 13.7936C91.3099 13.8306 91.3418 13.8605 91.3801 13.88C91.4184 13.8994 91.4615 13.9075 91.5042 13.9034C91.5387 13.9005 91.5718 13.889 91.6008 13.8702C91.6261 13.8548 91.6481 13.8346 91.6655 13.8107C91.6829 13.7867 91.6954 13.7596 91.7022 13.7308C91.709 13.7019 91.7101 13.6721 91.7052 13.6429C91.7004 13.6137 91.6897 13.5857 91.674 13.5607C91.441 13.1746 91.1881 12.792 90.9285 12.4226C90.9119 12.3981 90.8905 12.3772 90.8657 12.3611C90.8409 12.345 90.8131 12.334 90.784 12.3288C90.7549 12.3235 90.725 12.3241 90.6961 12.3305C90.6672 12.3369 90.6399 12.3489 90.6157 12.366C90.5887 12.3829 90.5656 12.4054 90.5479 12.4319C90.5302 12.4584 90.5183 12.4883 90.513 12.5197C90.5076 12.5511 90.509 12.5833 90.5169 12.6142C90.5249 12.645 90.5393 12.6739 90.5592 12.6988C90.8121 13.0449 91.0583 13.4176 91.2879 13.7936Z" fill="#DCEDF9"/>
<path d="M81.4777 3.67384L82.4694 0L70.3164 0.106488L81.4777 3.67384Z" fill="#FDCC50"/>
<path d="M70.3164 0.106445L80.8887 4.56231L80.9153 4.57229L81.3712 5.3277L81.4777 3.6738L70.3164 0.106445Z" fill="#FFAA01"/>
<path d="M81.3717 5.32767L80.3867 5.17126L80.9158 4.57227L81.3717 5.32767Z" fill="#F88800"/>
<path d="M79.5842 4.01323L80.9153 4.57229L78.1766 7.66045L70.3164 0.106445L79.5842 4.01323Z" fill="#FDCC50"/>
<path d="M141.54 26.2461C141.89 26.2454 142.232 26.3486 142.523 26.5425C142.814 26.7364 143.041 27.0124 143.175 27.3354C143.309 27.6584 143.345 28.014 143.277 28.357C143.209 28.7001 143.04 29.0153 142.793 29.2626C142.546 29.5099 142.23 29.6783 141.887 29.7464C141.544 29.8145 141.189 29.7792 140.866 29.645C140.543 29.5109 140.267 29.2839 140.073 28.9928C139.879 28.7017 139.776 28.3596 139.776 28.0098C139.777 27.5423 139.963 27.0942 140.294 26.7636C140.624 26.4331 141.073 26.247 141.54 26.2461ZM141.54 29.2211C141.78 29.2211 142.014 29.1501 142.213 29.017C142.412 28.8839 142.568 28.6947 142.659 28.4734C142.751 28.252 142.775 28.0085 142.728 27.7735C142.681 27.5385 142.566 27.3227 142.397 27.1533C142.227 26.9839 142.011 26.8685 141.776 26.8218C141.541 26.775 141.298 26.799 141.077 26.8907C140.855 26.9824 140.666 27.1376 140.533 27.3368C140.4 27.536 140.329 27.7702 140.329 28.0098C140.329 28.3311 140.456 28.6392 140.684 28.8663C140.911 29.0935 141.219 29.2211 141.54 29.2211Z" fill="#3B8EE8"/>
<path d="M135.185 20.0527C135.534 20.0521 135.876 20.1552 136.168 20.3492C136.459 20.5431 136.686 20.819 136.82 21.142C136.954 21.465 136.989 21.8206 136.921 22.1637C136.853 22.5068 136.685 22.8219 136.437 23.0693C136.19 23.3166 135.875 23.4849 135.532 23.553C135.189 23.6211 134.833 23.5858 134.51 23.4517C134.187 23.3175 133.911 23.0905 133.717 22.7994C133.523 22.5083 133.42 22.1662 133.421 21.8164C133.422 21.349 133.608 20.9009 133.938 20.5703C134.269 20.2397 134.717 20.0536 135.185 20.0527ZM135.185 23.0278C135.424 23.0278 135.658 22.9567 135.858 22.8236C136.057 22.6905 136.212 22.5013 136.304 22.28C136.395 22.0587 136.419 21.8151 136.373 21.5801C136.326 21.3452 136.211 21.1293 136.041 20.9599C135.872 20.7905 135.656 20.6752 135.421 20.6284C135.186 20.5817 134.942 20.6057 134.721 20.6973C134.5 20.789 134.311 20.9443 134.177 21.1435C134.044 21.3427 133.973 21.5769 133.973 21.8164C133.973 22.1377 134.101 22.4458 134.328 22.673C134.555 22.9001 134.863 23.0278 135.185 23.0278Z" fill="#FFAA01"/>
<path d="M133.005 14.3164C133.078 14.3164 133.148 14.3455 133.2 14.3973C133.252 14.4491 133.281 14.5194 133.281 14.5926V15.8139C133.281 15.8872 133.252 15.9574 133.2 16.0092C133.148 16.061 133.078 16.0901 133.005 16.0901C132.931 16.0901 132.861 16.061 132.809 16.0092C132.758 15.9574 132.729 15.8872 132.729 15.8139V14.5926C132.729 14.5194 132.758 14.4491 132.809 14.3973C132.861 14.3455 132.931 14.3164 133.005 14.3164Z" fill="#3B8EE8"/>
<path d="M133.005 12.1797C133.078 12.1797 133.148 12.2088 133.2 12.2606C133.252 12.3124 133.281 12.3826 133.281 12.4559V13.6772C133.281 13.7504 133.252 13.8207 133.2 13.8725C133.148 13.9243 133.078 13.9534 133.005 13.9534C132.931 13.9534 132.861 13.9243 132.809 13.8725C132.758 13.8207 132.729 13.7504 132.729 13.6772V12.4559C132.729 12.3826 132.758 12.3124 132.809 12.2606C132.861 12.2088 132.931 12.1797 133.005 12.1797Z" fill="#3B8EE8"/>
<path d="M131.291 13.8564H132.389C132.462 13.8564 132.533 13.8855 132.584 13.9373C132.636 13.9891 132.665 14.0594 132.665 14.1326C132.665 14.2062 132.636 14.2768 132.585 14.3291C132.533 14.3815 132.463 14.4113 132.389 14.4122H131.291C131.217 14.4113 131.147 14.3815 131.095 14.3291C131.044 14.2768 131.015 14.2062 131.015 14.1326C131.015 14.0594 131.044 13.9891 131.096 13.9373C131.147 13.8855 131.218 13.8564 131.291 13.8564Z" fill="#3B8EE8"/>
<path d="M133.62 13.8564H134.718C134.791 13.8564 134.862 13.8855 134.913 13.9373C134.965 13.9891 134.994 14.0594 134.994 14.1326C134.994 14.2062 134.965 14.2768 134.914 14.3291C134.862 14.3815 134.792 14.4113 134.718 14.4122H133.62C133.546 14.4113 133.476 14.3815 133.424 14.3291C133.373 14.2768 133.344 14.2062 133.344 14.1326C133.344 14.0594 133.373 13.9891 133.425 13.9373C133.476 13.8855 133.547 13.8564 133.62 13.8564Z" fill="#3B8EE8"/>
<path d="M142.752 21.1582C142.825 21.1582 142.895 21.1873 142.947 21.2391C142.999 21.2909 143.028 21.3612 143.028 21.4344V22.6557C143.028 22.7289 142.999 22.7992 142.947 22.851C142.895 22.9028 142.825 22.9319 142.752 22.9319C142.679 22.9319 142.608 22.9028 142.556 22.851C142.505 22.7992 142.476 22.7289 142.476 22.6557V21.4344C142.476 21.3612 142.505 21.2909 142.556 21.2391C142.608 21.1873 142.679 21.1582 142.752 21.1582Z" fill="#FFAA01"/>
<path d="M142.752 19.0215C142.825 19.0215 142.895 19.0506 142.947 19.1024C142.999 19.1542 143.028 19.2244 143.028 19.2977V20.519C143.028 20.5922 142.999 20.6625 142.947 20.7143C142.895 20.7661 142.825 20.7952 142.752 20.7952C142.679 20.7952 142.608 20.7661 142.556 20.7143C142.505 20.6625 142.476 20.5922 142.476 20.519V19.2877C142.478 19.2162 142.508 19.1485 142.56 19.0988C142.611 19.0492 142.68 19.0214 142.752 19.0215Z" fill="#FFAA01"/>
<path d="M141.038 20.6992H142.136C142.21 20.7001 142.28 20.7299 142.332 20.7823C142.383 20.8346 142.412 20.9052 142.412 20.9787C142.412 21.052 142.383 21.1223 142.331 21.1741C142.28 21.2259 142.209 21.255 142.136 21.255H141.038C140.965 21.255 140.894 21.2259 140.843 21.1741C140.791 21.1223 140.762 21.052 140.762 20.9787C140.762 20.9052 140.791 20.8346 140.842 20.7823C140.894 20.7299 140.964 20.7001 141.038 20.6992Z" fill="#FFAA01"/>
<path d="M143.37 20.6992H144.465C144.539 20.7001 144.609 20.7299 144.661 20.7823C144.712 20.8346 144.741 20.9052 144.741 20.9787C144.741 21.052 144.712 21.1223 144.66 21.1741C144.609 21.2259 144.538 21.255 144.465 21.255H143.37C143.297 21.255 143.226 21.226 143.174 21.1743C143.122 21.1226 143.092 21.0523 143.091 20.9787C143.092 20.9049 143.121 20.8343 143.174 20.782C143.226 20.7298 143.296 20.7001 143.37 20.6992Z" fill="#FFAA01"/>
<path d="M22.7227 17.291C23.0723 17.2904 23.4143 17.3934 23.7053 17.5872C23.9963 17.781 24.2233 18.0567 24.3576 18.3795C24.4919 18.7024 24.5273 19.0578 24.4595 19.4007C24.3917 19.7437 24.2237 20.0589 23.9767 20.3064C23.7297 20.5538 23.4148 20.7224 23.072 20.7909C22.7291 20.8593 22.3737 20.8245 22.0506 20.6909C21.7275 20.5573 21.4513 20.3308 21.257 20.0401C21.0627 19.7495 20.959 19.4077 20.959 19.0581C20.959 18.59 21.1447 18.141 21.4754 17.8097C21.806 17.4785 22.2546 17.2919 22.7227 17.291ZM22.7227 17.8434C22.4823 17.8428 22.2472 17.9134 22.047 18.0465C21.8468 18.1796 21.6906 18.369 21.5982 18.5909C21.5057 18.8128 21.4812 19.0571 21.5277 19.293C21.5742 19.5288 21.6896 19.7455 21.8593 19.9157C22.0291 20.086 22.2455 20.202 22.4812 20.2491C22.7169 20.2962 22.9613 20.2724 23.1834 20.1805C23.4056 20.0887 23.5955 19.933 23.7291 19.7332C23.8627 19.5334 23.934 19.2984 23.934 19.0581C23.9349 18.8983 23.9042 18.7399 23.8438 18.592C23.7833 18.444 23.6943 18.3095 23.5818 18.1961C23.4693 18.0826 23.3355 17.9925 23.188 17.9308C23.0406 17.8692 22.8825 17.8372 22.7227 17.8368V17.8434Z" fill="#3B8EE8"/>
<path d="M16.293 11.4541C16.6428 11.4534 16.9849 11.5566 17.276 11.7505C17.5671 11.9444 17.7941 12.2204 17.9282 12.5434C18.0624 12.8664 18.0977 13.222 18.0296 13.5651C17.9615 13.9081 17.7931 14.2233 17.5458 14.4706C17.2985 14.718 16.9833 14.8863 16.6403 14.9544C16.2972 15.0225 15.9416 14.9872 15.6186 14.853C15.2956 14.7189 15.0196 14.4919 14.8257 14.2008C14.6318 13.9097 14.5286 13.5676 14.5293 13.2178C14.5302 12.7503 14.7163 12.3022 15.0468 11.9717C15.3774 11.6411 15.8255 11.455 16.293 11.4541ZM16.293 12.0065C16.0534 12.0065 15.8192 12.0776 15.62 12.2107C15.4208 12.3438 15.2656 12.5329 15.1739 12.7543C15.0822 12.9756 15.0582 13.2192 15.105 13.4541C15.1517 13.6891 15.2671 13.9049 15.4365 14.0743C15.6059 14.2437 15.8217 14.3591 16.0567 14.4058C16.2917 14.4526 16.5352 14.4286 16.7566 14.3369C16.9779 14.2452 17.1671 14.09 17.3002 13.8908C17.4333 13.6916 17.5043 13.4574 17.5043 13.2178C17.5034 12.8968 17.3755 12.5892 17.1486 12.3623C16.9216 12.1353 16.614 12.0074 16.293 12.0065Z" fill="#FFAA01"/>
<path d="M13.9639 21.5438C13.9647 21.6173 13.9946 21.6876 14.0469 21.7393C14.0992 21.791 14.1698 21.82 14.2434 21.82H15.4647C15.5379 21.82 15.6082 21.7909 15.66 21.7391C15.7118 21.6873 15.7409 21.617 15.7409 21.5438C15.7409 21.4705 15.7118 21.4003 15.66 21.3485C15.6082 21.2967 15.5379 21.2676 15.4647 21.2676H14.2434C14.1698 21.2676 14.0992 21.2966 14.0469 21.3483C13.9946 21.4 13.9647 21.4702 13.9639 21.5438Z" fill="#3B8EE8"/>
<path d="M11.8281 21.5443C11.8281 21.5806 11.8353 21.6165 11.8491 21.65C11.863 21.6835 11.8834 21.7139 11.909 21.7396C11.9347 21.7652 11.9651 21.7856 11.9986 21.7995C12.0321 21.8133 12.0681 21.8205 12.1043 21.8205H13.3256C13.3989 21.8205 13.4691 21.7914 13.5209 21.7396C13.5727 21.6878 13.6018 21.6175 13.6018 21.5443C13.6018 21.471 13.5727 21.4008 13.5209 21.349C13.4691 21.2972 13.3989 21.2681 13.3256 21.2681H12.121C12.0833 21.2658 12.0456 21.2713 12.0102 21.2841C11.9747 21.297 11.9422 21.317 11.9148 21.3429C11.8874 21.3687 11.8655 21.4 11.8506 21.4346C11.8357 21.4692 11.8281 21.5066 11.8281 21.5443Z" fill="#3B8EE8"/>
<path d="M13.5088 19.8299V20.9281C13.5088 21.0013 13.5379 21.0716 13.5897 21.1234C13.6415 21.1752 13.7117 21.2043 13.785 21.2043C13.8582 21.2043 13.9285 21.1752 13.9803 21.1234C14.0321 21.0716 14.0612 21.0013 14.0612 20.9281V19.8299C14.0612 19.7567 14.0321 19.6864 13.9803 19.6346C13.9285 19.5828 13.8582 19.5537 13.785 19.5537C13.7117 19.5537 13.6415 19.5828 13.5897 19.6346C13.5379 19.6864 13.5088 19.7567 13.5088 19.8299Z" fill="#3B8EE8"/>
<path d="M13.5088 22.16V23.2581C13.5088 23.3314 13.5379 23.4017 13.5897 23.4535C13.6415 23.5053 13.7117 23.5344 13.785 23.5344C13.8582 23.5344 13.9285 23.5053 13.9803 23.4535C14.0321 23.4017 14.0612 23.3314 14.0612 23.2581V22.16C14.0612 22.0867 14.0321 22.0165 13.9803 21.9647C13.9285 21.9129 13.8582 21.8838 13.785 21.8838C13.7117 21.8838 13.6415 21.9129 13.5897 21.9647C13.5379 22.0165 13.5088 22.0867 13.5088 22.16Z" fill="#3B8EE8"/>
<path d="M26.8955 12.0067C26.8955 12.0799 26.9246 12.1502 26.9764 12.202C27.0282 12.2538 27.0985 12.2829 27.1717 12.2829H28.393C28.4663 12.2829 28.5365 12.2538 28.5883 12.202C28.6401 12.1502 28.6692 12.0799 28.6692 12.0067C28.6692 11.9334 28.6401 11.8632 28.5883 11.8114C28.5365 11.7596 28.4663 11.7305 28.393 11.7305H27.1717C27.0985 11.7305 27.0282 11.7596 26.9764 11.8114C26.9246 11.8632 26.8955 11.9334 26.8955 12.0067Z" fill="#FFAA01"/>
<path d="M24.7656 12.0067C24.7656 12.0799 24.7947 12.1502 24.8465 12.202C24.8983 12.2538 24.9686 12.2829 25.0418 12.2829H26.2631C26.3364 12.2829 26.4066 12.2538 26.4584 12.202C26.5102 12.1502 26.5393 12.0799 26.5393 12.0067C26.5393 11.9334 26.5102 11.8632 26.4584 11.8114C26.4066 11.7596 26.3364 11.7305 26.2631 11.7305H25.0418C24.9686 11.7305 24.8983 11.7596 24.8465 11.8114C24.7947 11.8632 24.7656 11.9334 24.7656 12.0067Z" fill="#FFAA01"/>
<path d="M26.4297 10.3026V11.4007C26.4297 11.474 26.4588 11.5442 26.5106 11.596C26.5624 11.6478 26.6326 11.6769 26.7059 11.6769C26.7791 11.6769 26.8494 11.6478 26.9012 11.596C26.953 11.5442 26.9821 11.474 26.9821 11.4007V10.3026C26.9821 10.2293 26.953 10.1591 26.9012 10.1073C26.8494 10.0555 26.7791 10.0264 26.7059 10.0264C26.6326 10.0264 26.5624 10.0555 26.5106 10.1073C26.4588 10.1591 26.4297 10.2293 26.4297 10.3026Z" fill="#FFAA01"/>
<path d="M26.4297 12.6317V13.7265C26.4297 13.7998 26.4588 13.87 26.5106 13.9218C26.5624 13.9736 26.6326 14.0027 26.7059 14.0027C26.7791 14.0027 26.8494 13.9736 26.9012 13.9218C26.953 13.87 26.9821 13.7998 26.9821 13.7265V12.6317C26.9821 12.5584 26.953 12.4882 26.9012 12.4364C26.8494 12.3846 26.7791 12.3555 26.7059 12.3555C26.6326 12.3555 26.5624 12.3846 26.5106 12.4364C26.4588 12.4882 26.4297 12.5584 26.4297 12.6317Z" fill="#FFAA01"/>
<path d="M14.4928 33.3145H9.53774C8.75481 33.3145 8.12012 33.9491 8.12012 34.7321V39.6871C8.12012 40.47 8.75481 41.1047 9.53774 41.1047H14.4928C15.2757 41.1047 15.9104 40.47 15.9104 39.6871V34.7321C15.9104 33.9491 15.2757 33.3145 14.4928 33.3145Z" fill="#FFAA01"/>
<path d="M14.2205 35.5937C14.2205 35.5404 14.1972 35.4872 14.1839 35.434C14.1351 35.2482 14.044 35.0762 13.9177 34.9315C13.8233 34.8238 13.7107 34.7336 13.5849 34.6652C13.5084 34.6203 13.418 34.6049 13.3309 34.6221C13.2438 34.6393 13.1661 34.6878 13.1123 34.7584C12.8927 35.0213 12.6797 35.2842 12.4468 35.5471C12.3837 35.6243 12.3538 35.7235 12.3638 35.8227C12.3738 35.9219 12.4228 36.0131 12.5 36.0762C12.6165 36.1794 12.7396 36.2759 12.8594 36.3757L12.9093 36.4057C12.6468 37.159 12.1334 37.7993 11.4551 38.2193C11.3686 38.1494 11.2787 38.0762 11.1922 37.9997L11.0525 37.8898C10.9908 37.8365 10.9132 37.8053 10.8318 37.801C10.7505 37.7968 10.67 37.8199 10.6032 37.8665C10.5567 37.8992 10.5152 37.9384 10.4801 37.983C10.2871 38.2226 10.0907 38.4589 9.89439 38.6985C9.83372 38.7705 9.79452 38.8582 9.78125 38.9514V39.0579C9.80841 39.1196 9.84306 39.1777 9.88441 39.2309C9.99663 39.3496 10.1297 39.4466 10.2771 39.5171C10.448 39.6026 10.6388 39.6406 10.8295 39.6269C10.9579 39.6156 11.0849 39.5922 11.2089 39.557C11.5344 39.467 11.8426 39.323 12.1207 39.1311C12.389 38.9502 12.6368 38.7404 12.8594 38.5055C13.1624 38.1902 13.4363 37.8482 13.6781 37.4839C13.8761 37.2008 14.034 36.8917 14.1473 36.5654C14.202 36.4004 14.2367 36.2295 14.2504 36.0562C14.2504 35.9864 14.2504 35.9165 14.2504 35.8466C14.2504 35.7767 14.2305 35.6835 14.2205 35.5937Z" fill="white"/>
<path d="M134.585 78.3955H128.941C128.316 78.3955 127.81 78.9021 127.81 79.5269V85.1708C127.81 85.7957 128.316 86.3023 128.941 86.3023H134.585C135.21 86.3023 135.716 85.7957 135.716 85.1708V79.5269C135.716 78.9021 135.21 78.3955 134.585 78.3955Z" fill="#FFAA01"/>
<path d="M134.292 82.1984C134.292 83.1967 133.739 83.6959 133.077 83.6959C132.91 83.7129 132.742 83.6791 132.595 83.5989C132.448 83.5187 132.328 83.396 132.252 83.2466C132.181 83.3918 132.069 83.5124 131.928 83.5926C131.788 83.6727 131.627 83.7087 131.466 83.6959C130.911 83.6959 130.375 83.2067 130.375 82.4114C130.375 81.616 130.894 81.1302 131.466 81.1302C131.584 81.1242 131.702 81.1437 131.812 81.1874C131.921 81.231 132.02 81.2978 132.102 81.3831V81.1834H133.1V82.6609C133.1 82.8772 133.187 82.9438 133.303 82.9438C133.42 82.9438 133.566 82.8007 133.566 82.2217C133.566 81.2866 132.867 80.6277 131.806 80.6277C131.574 80.6152 131.342 80.6508 131.125 80.7324C130.907 80.814 130.709 80.9398 130.543 81.1017C130.377 81.2637 130.246 81.4583 130.158 81.6734C130.071 81.8885 130.029 82.1194 130.035 82.3515C130.025 82.5829 130.064 82.814 130.148 83.0298C130.233 83.2455 130.361 83.4413 130.526 83.6045C130.69 83.7677 130.887 83.8948 131.103 83.9776C131.32 84.0604 131.551 84.097 131.782 84.0852C132.143 84.086 132.499 84.0089 132.827 83.8589L133.044 84.4912C132.645 84.6603 132.216 84.7452 131.782 84.7408C130.228 84.7408 129.233 83.7025 129.233 82.3515C129.233 81.0004 130.232 79.9688 131.806 79.9688C133.293 79.9621 134.292 80.9604 134.292 82.1984ZM132.132 82.4114C132.132 82.1019 131.972 81.9421 131.762 81.9421C131.553 81.9421 131.396 82.1019 131.396 82.4114C131.396 82.7208 131.55 82.8839 131.762 82.8839C131.975 82.8839 132.132 82.7242 132.132 82.4114Z" fill="white"/>
<path d="M132.951 35.5477V60.7754C132.951 61.9069 132.502 62.992 131.702 63.7921C130.902 64.5921 129.817 65.0416 128.685 65.0416H68.2432V21.9072H119.314C122.933 21.9072 126.403 23.3447 128.962 25.9034C131.521 28.4621 132.958 31.9325 132.958 35.551L132.951 35.5477Z" fill="#3B8EE8"/>
<path d="M132.952 55.4336V60.758C132.952 61.8895 132.502 62.9746 131.702 63.7747C130.902 64.5747 129.817 65.0242 128.685 65.0242H78.1602V55.4336H132.952Z" fill="#28BAFF"/>
<path d="M82.4955 34.0603V65.0417H55.168V34.0603C55.168 32.4594 55.4834 30.8742 56.0962 29.3953C56.7091 27.9163 57.6073 26.5726 58.7396 25.4409C59.8719 24.3093 61.2161 23.4118 62.6954 22.7997C64.1746 22.1877 65.76 21.8732 67.3609 21.874H70.3925C73.61 21.896 76.6883 23.1896 78.9557 25.4726C81.2231 27.7556 82.4956 30.8426 82.4955 34.0603Z" fill="#007FE9"/>
<path d="M82.4957 34.0603V65.0417H58.2031V34.0603C58.2031 30.8415 59.4765 27.7534 61.7453 25.4702C64.0141 23.1871 67.0941 21.8942 70.3128 21.874H70.386C73.6048 21.8942 76.6847 23.1871 78.9536 25.4702C81.2224 27.7534 82.4958 30.8415 82.4957 34.0603Z" fill="#0050DB"/>
<path d="M55.1647 65.041L44.7588 83.3636C40.9352 90.0957 43.2946 95.5499 50.0233 95.5499H53.0515C59.7736 95.51 68.276 90.0691 72.083 83.3636L82.4889 65.041H55.1647Z" fill="#007FE9"/>
<path d="M82.4955 63.2705H55.168V65.0409H82.4955V63.2705Z" fill="#007FE9"/>
<path d="M111.048 37.2741C113.468 37.2741 115.43 35.3119 115.43 32.8914C115.43 30.471 113.468 28.5088 111.048 28.5088C108.627 28.5088 106.665 30.471 106.665 32.8914C106.665 35.3119 108.627 37.2741 111.048 37.2741Z" fill="#007FE9"/>
<path d="M111.048 36.4391C113.468 36.4391 115.43 34.477 115.43 32.0565C115.43 29.636 113.468 27.6738 111.048 27.6738C108.627 27.6738 106.665 29.636 106.665 32.0565C106.665 34.477 108.627 36.4391 111.048 36.4391Z" fill="#2E3052"/>
<path d="M111.048 34.5954C110.544 34.5954 110.052 34.4461 109.633 34.1663C109.215 33.8866 108.888 33.489 108.696 33.0238C108.503 32.5587 108.453 32.0468 108.551 31.553C108.649 31.0592 108.892 30.6056 109.248 30.2495C109.604 29.8935 110.057 29.6511 110.551 29.5528C111.045 29.4546 111.557 29.505 112.022 29.6977C112.487 29.8904 112.885 30.2167 113.164 30.6353C113.444 31.0539 113.593 31.5461 113.593 32.0496C113.593 32.7245 113.324 33.3715 112.847 33.8488C112.37 34.326 111.723 34.5945 111.048 34.5954Z" fill="#524E84"/>
<path d="M111.783 2.74512V31.9661C111.77 32.1522 111.688 32.3266 111.551 32.4539C111.415 32.5813 111.236 32.6521 111.049 32.6521C110.863 32.6521 110.683 32.5813 110.547 32.4539C110.411 32.3266 110.328 32.1522 110.315 31.9661V2.74512H111.783Z" fill="#FFAA01"/>
<path d="M122.186 8.189H110.315V1.58008H122.186L119.487 4.88454L122.186 8.189Z" fill="#2E3052"/>
<path d="M111.783 8.18945V8.58878L110.315 9.10126V8.18945H111.783Z" fill="#F88800"/>
<path d="M100.553 65.0508H94.709V120.977H100.553V65.0508Z" fill="#007FE9"/>
<path d="M110.578 122.135H84.665V120.867C84.665 119.923 85.0402 119.017 85.7079 118.35C86.3757 117.682 87.2814 117.307 88.2257 117.307H107.004C107.949 117.307 108.854 117.682 109.522 118.35C110.19 119.017 110.565 119.923 110.565 120.867L110.578 122.135Z" fill="#3B8EE8"/>
<path d="M100.549 65.0508V66.5583L94.709 68.6015V65.0508H100.549Z" fill="#0050DB"/>
<path d="M47.1219 44.6721C49.2916 52.5556 56.4396 54.7586 56.4396 54.7586C58.6913 54.2955 60.8541 53.4742 62.8455 52.326C62.3164 51.0614 62.0901 49.7769 61.7973 48.1097C59.165 48.8418 56.8955 49.2345 56.8955 49.2345C51.3448 46.6588 47.9771 34.3428 47.9771 34.3428C44.6693 37.4742 47.1219 44.6721 47.1219 44.6721Z" fill="#007FE9"/>
<path d="M28.4494 108.025L26.0967 111.167C26.0967 111.167 26.526 112.571 28.2664 113.656L31.0883 110.039L28.4494 108.025Z" fill="#FBA691"/>
<path d="M27.8812 112.681C27.8812 112.681 28.9793 112.445 29.3553 112.824C29.7314 113.204 30.6864 118.375 31.5583 119.503C32.4302 120.631 31.5583 121.237 31.0059 121.466C30.4535 121.696 22.6865 113.916 22.6865 113.916C22.6865 113.916 24.6133 111.253 25.5417 110.741C26.4702 110.229 26.8928 112.132 27.8812 112.681Z" fill="#FFAA01"/>
<path d="M28.0242 115.699C27.9989 115.69 27.9759 115.675 27.9565 115.656C27.937 115.637 27.9216 115.614 27.911 115.59C27.8906 115.54 27.8903 115.484 27.9102 115.433C27.93 115.383 27.9685 115.343 28.0175 115.32C28.4822 115.113 28.9916 115.027 29.4983 115.07C29.7451 115.112 29.9759 115.22 30.1659 115.383C30.3558 115.546 30.4978 115.758 30.5765 115.996C30.5903 116.047 30.5838 116.102 30.5585 116.149C30.5331 116.196 30.4908 116.232 30.4401 116.248C30.415 116.256 30.3886 116.258 30.3625 116.256C30.3364 116.253 30.3111 116.245 30.2882 116.232C30.2652 116.219 30.245 116.202 30.2288 116.182C30.2126 116.161 30.2007 116.137 30.1938 116.112C30.137 115.944 30.0354 115.794 29.9 115.679C29.7645 115.564 29.6004 115.488 29.4251 115.46C28.9962 115.432 28.5669 115.508 28.1739 115.683C28.1277 115.706 28.0744 115.712 28.0242 115.699Z" fill="white"/>
<path d="M27.8939 114.871C27.8688 114.862 27.8459 114.847 27.827 114.828C27.808 114.809 27.7934 114.786 27.7841 114.761C27.7628 114.711 27.7621 114.655 27.782 114.605C27.8019 114.554 27.8409 114.514 27.8906 114.492C28.3557 114.287 28.8649 114.202 29.3714 114.245C29.6179 114.286 29.8486 114.393 30.0381 114.556C30.2277 114.718 30.3689 114.93 30.4463 115.167C30.461 115.219 30.455 115.275 30.4296 115.323C30.4041 115.371 30.3612 115.407 30.3098 115.424C30.2845 115.431 30.2579 115.433 30.2316 115.43C30.2053 115.427 30.1799 115.419 30.1569 115.406C30.1339 115.393 30.1138 115.375 30.0978 115.354C30.0817 115.333 30.0701 115.309 30.0636 115.284C30.0045 115.118 29.902 114.972 29.7666 114.86C29.6313 114.748 29.4683 114.675 29.2949 114.648C28.8662 114.619 28.4369 114.695 28.0436 114.868C28.0204 114.879 27.995 114.885 27.9691 114.886C27.9433 114.886 27.9176 114.881 27.8939 114.871Z" fill="white"/>
<path d="M28.3826 116.568C28.3571 116.559 28.3338 116.544 28.3143 116.525C28.2948 116.507 28.2795 116.484 28.2695 116.458C28.2499 116.408 28.25 116.353 28.2698 116.303C28.2895 116.253 28.3275 116.212 28.3759 116.189C28.8423 115.984 29.3526 115.899 29.8601 115.943C30.1066 115.983 30.3373 116.09 30.5269 116.253C30.7165 116.415 30.8576 116.627 30.935 116.864C30.9497 116.917 30.9437 116.972 30.9183 117.02C30.8929 117.068 30.85 117.104 30.7985 117.121C30.7732 117.128 30.7466 117.131 30.7203 117.128C30.6941 117.125 30.6687 117.116 30.6457 117.103C30.6227 117.09 30.6025 117.073 30.5865 117.052C30.5704 117.031 30.5588 117.007 30.5523 116.981C30.4933 116.816 30.3907 116.669 30.2554 116.557C30.1201 116.446 29.9571 116.372 29.7836 116.345C29.3549 116.317 28.9256 116.392 28.5323 116.565C28.5091 116.576 28.4837 116.582 28.4578 116.583C28.432 116.584 28.4063 116.579 28.3826 116.568Z" fill="white"/>
<path d="M42.8555 113.42L43.2115 117.327C43.2115 117.327 44.4728 118.085 46.4894 117.726L46.1566 113.16L42.8555 113.42Z" fill="#FBA691"/>
<path d="M45.7777 117.177C45.7777 117.177 46.4632 116.225 47.0222 116.259C47.5813 116.292 51.9207 119.64 53.3949 119.919C54.8691 120.199 54.5995 121.25 54.3367 121.823C54.0738 122.395 42.6596 122.062 42.6596 122.062C42.6596 122.062 42.2403 118.375 42.5997 117.327C42.9591 116.279 44.6296 117.457 45.7777 117.177Z" fill="#FFAA01"/>
<path d="M48.6031 119.666C48.5784 119.677 48.5518 119.682 48.5249 119.682C48.4981 119.682 48.4715 119.677 48.4467 119.666C48.399 119.641 48.363 119.598 48.3462 119.546C48.3295 119.495 48.3333 119.439 48.3569 119.39C48.5872 118.932 48.9309 118.542 49.3552 118.255C49.5708 118.128 49.8172 118.063 50.0673 118.068C50.3174 118.072 50.5615 118.145 50.7728 118.278C50.8173 118.309 50.8482 118.355 50.8588 118.408C50.8693 118.461 50.8588 118.516 50.8294 118.561C50.815 118.583 50.7963 118.602 50.7744 118.617C50.7526 118.631 50.7279 118.641 50.7021 118.646C50.6762 118.65 50.6497 118.65 50.6241 118.644C50.5985 118.638 50.5743 118.627 50.5532 118.611C50.4014 118.524 50.2293 118.477 50.054 118.477C49.8788 118.477 49.7066 118.524 49.5549 118.611C49.2055 118.863 48.9224 119.195 48.7296 119.58C48.7157 119.602 48.6973 119.621 48.6755 119.636C48.6537 119.651 48.6291 119.661 48.6031 119.666Z" fill="white"/>
<path d="M47.9765 119.12C47.9512 119.131 47.9241 119.136 47.8967 119.136C47.8692 119.136 47.8421 119.131 47.8168 119.12C47.7702 119.094 47.7352 119.051 47.7186 119C47.702 118.949 47.705 118.893 47.7269 118.844C47.9582 118.387 48.3017 117.997 48.7253 117.709C48.9413 117.584 49.1875 117.52 49.4373 117.524C49.6872 117.528 49.9312 117.6 50.1429 117.733C50.1867 117.764 50.217 117.81 50.2276 117.863C50.2381 117.916 50.228 117.97 50.1995 118.016C50.1847 118.038 50.1658 118.056 50.1437 118.071C50.1216 118.086 50.0969 118.096 50.0709 118.101C50.0448 118.106 50.0181 118.105 49.9922 118.1C49.9663 118.094 49.9417 118.084 49.9199 118.069C49.7695 117.977 49.5968 117.929 49.4208 117.929C49.2447 117.929 49.0721 117.977 48.9216 118.069C48.5715 118.319 48.2881 118.652 48.0963 119.037C48.0686 119.079 48.0257 119.109 47.9765 119.12Z" fill="white"/>
<path d="M49.4352 120.118C49.4104 120.129 49.3838 120.134 49.357 120.134C49.3301 120.134 49.3035 120.129 49.2788 120.118C49.231 120.093 49.195 120.05 49.1783 119.998C49.1615 119.947 49.1653 119.891 49.1889 119.842C49.4192 119.385 49.7629 118.994 50.1872 118.707C50.4032 118.582 50.6494 118.518 50.8993 118.522C51.1491 118.526 51.3931 118.598 51.6049 118.731C51.6487 118.762 51.679 118.808 51.6895 118.861C51.7 118.914 51.69 118.968 51.6614 119.014C51.647 119.036 51.6284 119.054 51.6066 119.069C51.5848 119.084 51.5603 119.094 51.5346 119.099C51.5088 119.103 51.4823 119.103 51.4567 119.098C51.431 119.092 51.4067 119.082 51.3852 119.067C51.2345 118.976 51.0619 118.928 50.8861 118.928C50.7102 118.928 50.5376 118.976 50.3869 119.067C50.0368 119.317 49.7534 119.65 49.5616 120.035C49.5471 120.057 49.5284 120.075 49.5067 120.09C49.485 120.104 49.4607 120.114 49.4352 120.118Z" fill="white"/>
<path d="M40.6694 71.0178L38.2967 90.6516C36.7808 92.7624 35.3918 94.9615 34.137 97.2372C32.4365 100.339 27.8975 108.385 27.8975 108.385L30.6429 110.478L45.6743 94.9011L49.6676 70.8281L40.6694 71.0178Z" fill="#001030"/>
<path d="M31.3183 110.427C31.0607 111.012 30.6251 111.5 30.0737 111.822L26.8857 109.136C27.1486 108.579 27.517 108.079 27.9706 107.662L31.3183 110.427Z" fill="#2E3052"/>
<path d="M28.5293 71.8304C28.5293 71.8304 32.7622 82.2362 38.263 90.3526C38.263 90.3526 39.0849 98.2494 40.4893 102.456C41.1049 104.296 42.2962 113.018 42.2962 113.018L46.4692 112.828L45.3977 88.5789L40.9851 71.0117L28.5293 71.8304Z" fill="#2E3052"/>
<path d="M46.8592 112.685C47.0855 113.389 47.0855 114.147 46.8592 114.851L42.0273 114.987C41.8269 114.302 41.7592 113.585 41.8276 112.874L46.8592 112.685Z" fill="#524E84"/>
<path d="M47.9711 34.3423C48.6001 35.1277 49.8613 43.1276 50.061 51.2473C50.061 51.4337 50.061 51.62 50.061 51.8064C50.0809 52.6683 50.0976 53.5302 50.1175 54.3954C50.1375 55.2606 50.1508 56.0959 50.1641 56.9411C50.1874 58.3221 50.2074 59.6832 50.224 60.991C50.224 61.1407 50.224 61.2905 50.224 61.4369C50.224 62.7148 50.2507 63.9394 50.2606 65.0974C50.2606 65.2472 50.2606 65.3936 50.2606 65.54C50.2606 67.2572 50.2806 68.7779 50.2839 69.9992V70.4917C50.2839 71.3436 50.2839 72.0225 50.2839 72.4884C48.2939 73.0273 46.2676 73.4221 44.2208 73.6697L44.0577 73.6897L43.7882 73.7197H43.7216C43.3722 73.7596 43.0228 73.7929 42.67 73.8195C40.9368 73.9636 39.196 73.9947 37.4588 73.9127L37.0029 73.8894L36.5935 73.8628H36.4072L36.0744 73.8361C33.4875 73.6294 30.9254 73.1838 28.4206 72.505C28.4206 71.5067 28.394 69.4501 28.3906 66.8112C28.3906 66.6648 28.3906 66.5184 28.3906 66.3686C28.3906 63.4569 28.3906 59.8795 28.4306 56.1957C28.4306 55.9062 28.4306 55.6133 28.4306 55.3238C28.4306 55.0343 28.4306 54.6583 28.4306 54.3055V54.1325C28.4306 54.0526 28.4306 53.9728 28.4306 53.8929C28.4306 53.7332 28.4306 53.5601 28.4306 53.4137V52.7149V52.1858C28.4306 51.8363 28.4306 51.4836 28.4306 51.1375C28.5537 43.8164 28.8033 37.1077 29.2725 35.3972C29.3019 35.2804 29.3479 35.1683 29.4089 35.0644C29.4625 34.9832 29.5226 34.9064 29.5886 34.8348C29.6751 34.735 29.7783 34.6318 29.8914 34.5253C30.6768 33.8066 32.0345 32.968 33.4122 32.176L33.8914 31.8997C33.918 31.8997 37.6351 30.6319 37.6584 30.6152L41.5486 30.8881C41.5486 30.8881 47.0627 33.1876 47.9711 34.3423Z" fill="#3B8EE8"/>
<path d="M32.2765 44.8747C32.276 44.8326 32.2625 44.7918 32.2379 44.7577C32.2132 44.7237 32.1785 44.6981 32.1387 44.6846C32.0989 44.6711 32.0559 44.6703 32.0156 44.6823C31.9753 44.6943 31.9397 44.7185 31.9137 44.7516C30.5553 46.5884 29.52 48.6433 28.8522 50.8281C28.7091 51.284 28.586 51.7265 28.4795 52.1592V52.6883V53.3871C28.4795 53.5468 28.4795 53.7199 28.4795 53.8663C28.4795 53.9462 28.4795 54.026 28.4795 54.1059V54.2789C28.6653 53.1528 28.9288 52.0409 29.2682 50.9512C29.9231 48.8159 30.9358 46.8074 32.2631 45.0111C32.2891 44.9753 32.3031 44.9322 32.3031 44.888L32.2765 44.8747Z" fill="#007FE9"/>
<path d="M33.0855 66.0958C37.2851 66.0758 40.8724 64.1657 43.1386 62.565C44.576 61.552 45.8925 60.3774 47.0621 59.0642C47.0793 59.0439 47.0924 59.0204 47.1006 58.995C47.1088 58.9696 47.1119 58.9429 47.1097 58.9163C47.1075 58.8897 47.1002 58.8638 47.088 58.8401C47.0758 58.8164 47.0591 58.7953 47.0388 58.778C46.997 58.7444 46.9437 58.7283 46.8903 58.7333C46.8368 58.7383 46.7875 58.7639 46.7526 58.8047C45.5933 60.096 44.2891 61.2495 42.8658 62.2422C40.6495 63.8063 37.1453 65.6731 33.0555 65.6898C33.0017 65.6898 32.9501 65.7112 32.912 65.7492C32.8739 65.7873 32.8525 65.8389 32.8525 65.8928C32.8528 65.922 32.8592 65.9508 32.8714 65.9773C32.8836 66.0039 32.9013 66.0275 32.9233 66.0467C32.9453 66.0659 32.9712 66.0802 32.9991 66.0887C33.0271 66.0971 33.0565 66.0995 33.0855 66.0958Z" fill="#007FE9"/>
<path d="M37.4448 67.5203C41.1053 67.5203 44.7259 65.4438 44.8889 65.3506C44.9351 65.3235 44.9687 65.2793 44.9824 65.2276C44.9961 65.1758 44.9888 65.1208 44.9622 65.0744C44.9356 65.0277 44.8916 64.9934 44.8399 64.9791C44.7881 64.9647 44.7327 64.9715 44.686 64.9979C44.646 65.0245 40.3599 67.4671 36.5762 67.0744C36.5499 67.0712 36.5232 67.0733 36.4977 67.0807C36.4722 67.088 36.4485 67.1005 36.428 67.1173C36.4075 67.1341 36.3906 67.1549 36.3783 67.1784C36.366 67.2019 36.3586 67.2276 36.3566 67.2541C36.351 67.3074 36.3667 67.3609 36.4004 67.4026C36.4341 67.4444 36.4829 67.4712 36.5363 67.477C36.8391 67.507 37.1419 67.5203 37.4448 67.5203Z" fill="#007FE9"/>
<path d="M36.4129 37.2272C39.9237 36.2555 42.872 33.2805 43.0052 33.1474C43.0431 33.109 43.0643 33.0571 43.0639 33.0031C43.0636 32.9492 43.0419 32.8975 43.0035 32.8596C42.9651 32.8216 42.9132 32.8005 42.8592 32.8008C42.8052 32.8011 42.7536 32.8228 42.7156 32.8612C42.6824 32.8978 39.2148 36.3953 35.4545 37.0276C35.4048 37.0398 35.3615 37.0703 35.3333 37.113C35.3051 37.1558 35.2942 37.2076 35.3026 37.2581C35.311 37.3086 35.3382 37.3541 35.3787 37.3854C35.4192 37.4167 35.47 37.4315 35.521 37.4269C35.8218 37.377 36.1195 37.3103 36.4129 37.2272Z" fill="#007FE9"/>
<path d="M33.4609 20.8349C33.4609 24.3856 35.6473 26.8249 39.198 26.8249C42.7487 26.8249 45.2246 24.1959 45.2246 20.6452C45.2246 17.0945 43.1214 14.4023 39.5674 14.4023C35.3112 14.409 33.4609 17.2908 33.4609 20.8349Z" fill="#2E3052"/>
<path d="M33.5444 21.7767C33.5444 21.7767 32.3031 19.8999 32.9587 18.449C33.6143 16.9981 33.2915 17.2809 33.4612 16.1562C33.6309 15.0314 34.4595 14.5688 35.4312 14.4058C36.4029 14.2427 35.7407 13.1146 37.0951 12.7086C38.4495 12.3026 39.5443 13.7236 40.4229 13.088C41.3014 12.4524 43.4445 12.1396 44.0468 13.088C44.6491 14.0364 45.1882 14.0297 45.8305 13.9998C46.6058 13.9632 47.6408 15.1845 46.9419 16.3059C46.2431 17.4274 45.0618 16.9715 45.2248 17.7601C45.3879 18.5488 46.3862 19.8966 45.0484 21.6303C44.6425 22.1561 33.5444 21.7767 33.5444 21.7767Z" fill="#2E3052"/>
<path d="M34.2594 22.3621C34.2594 22.3621 33.2611 21.031 32.539 22.1358C31.8168 23.2406 32.8418 26.4353 34.6388 25.6532L34.2594 22.3621Z" fill="#FB876B"/>
<path d="M34.2473 24.6584C34.2143 24.6583 34.1822 24.6476 34.1558 24.6278C34.1295 24.608 34.1102 24.5802 34.1009 24.5486C33.9918 24.234 33.8165 23.9465 33.5869 23.7054C33.3573 23.4643 33.0786 23.2753 32.7698 23.1509C32.7512 23.144 32.7342 23.1334 32.7197 23.1198C32.7052 23.1062 32.6935 23.09 32.6853 23.0719C32.6772 23.0538 32.6726 23.0343 32.672 23.0144C32.6713 22.9946 32.6746 22.9748 32.6816 22.9563C32.6886 22.9377 32.6991 22.9207 32.7127 22.9062C32.7263 22.8917 32.7426 22.8801 32.7606 22.8719C32.7787 22.8637 32.7982 22.8591 32.8181 22.8585C32.8379 22.8578 32.8577 22.8611 32.8762 22.8681C33.2278 23.0088 33.5443 23.2246 33.8035 23.5006C34.0628 23.7765 34.2585 24.1058 34.3771 24.4654C34.3884 24.5042 34.384 24.546 34.3646 24.5815C34.3453 24.6171 34.3127 24.6435 34.2739 24.6551L34.2473 24.6584Z" fill="#D45C48"/>
<path d="M33.2115 24.1594C33.182 24.16 33.1531 24.1519 33.1283 24.1361C33.0952 24.1137 33.072 24.0795 33.0633 24.0405C33.0546 24.0015 33.0612 23.9607 33.0817 23.9264C33.2278 23.7248 33.4255 23.5661 33.654 23.4672C33.6907 23.4509 33.7323 23.4498 33.7697 23.4641C33.8072 23.4785 33.8374 23.5071 33.8537 23.5437C33.87 23.5804 33.8711 23.622 33.8568 23.6594C33.8424 23.6969 33.8138 23.7271 33.7772 23.7434C33.6051 23.8156 33.454 23.93 33.3379 24.0762C33.3264 24.1003 33.3086 24.1207 33.2863 24.1354C33.264 24.1501 33.2381 24.1583 33.2115 24.1594Z" fill="#D45C48"/>
<path d="M44.4262 22.3621C44.4262 22.3621 45.4246 21.031 46.1467 22.1358C46.8688 23.2406 45.8439 26.4353 44.0469 25.6532L44.4262 22.3621Z" fill="#FB876B"/>
<path d="M44.4388 24.659C44.4718 24.6589 44.5039 24.6481 44.5302 24.6284C44.5566 24.6086 44.5759 24.5808 44.5852 24.5491C44.6955 24.2352 44.8712 23.9483 45.1006 23.7073C45.3301 23.4664 45.6081 23.2769 45.9163 23.1515C45.9376 23.1464 45.9574 23.1368 45.9746 23.1233C45.9918 23.1099 46.006 23.093 46.0161 23.0736C46.0262 23.0543 46.0321 23.033 46.0333 23.0112C46.0345 22.9894 46.031 22.9676 46.0231 22.9473C46.0152 22.9269 46.0031 22.9085 45.9875 22.8933C45.9719 22.878 45.9532 22.8662 45.9327 22.8588C45.9122 22.8514 45.8903 22.8484 45.8685 22.8501C45.8468 22.8518 45.8256 22.8581 45.8065 22.8686C45.4556 23.0103 45.1396 23.2265 44.8805 23.5023C44.6214 23.7781 44.4252 24.1069 44.3057 24.466C44.3001 24.4854 44.2985 24.5058 44.3008 24.5258C44.3032 24.5459 44.3095 24.5654 44.3194 24.583C44.3293 24.6006 44.3426 24.6161 44.3585 24.6286C44.3745 24.6411 44.3927 24.6503 44.4122 24.6556L44.4388 24.659Z" fill="#D45C48"/>
<path d="M45.4771 24.1599C45.5065 24.1601 45.5353 24.152 45.5603 24.1366C45.5771 24.1258 45.5915 24.1118 45.6028 24.0953C45.6141 24.0789 45.622 24.0604 45.626 24.0408C45.6301 24.0213 45.6302 24.0012 45.6263 23.9816C45.6224 23.962 45.6147 23.9434 45.6036 23.9269C45.4592 23.7249 45.2625 23.5661 45.0345 23.4677C45.0164 23.4594 44.9968 23.4548 44.9769 23.4542C44.957 23.4535 44.9372 23.4569 44.9186 23.464C44.9 23.4711 44.8831 23.4819 44.8687 23.4957C44.8543 23.5095 44.8428 23.526 44.8349 23.5442C44.8266 23.5623 44.822 23.5819 44.8214 23.6018C44.8207 23.6217 44.8241 23.6415 44.8312 23.6601C44.8383 23.6787 44.8491 23.6957 44.8629 23.7101C44.8766 23.7245 44.8931 23.736 44.9114 23.7439C45.0821 23.8184 45.2327 23.9325 45.3507 24.0767C45.3619 24.101 45.3796 24.1216 45.402 24.1363C45.4243 24.1511 45.4504 24.1592 45.4771 24.1599Z" fill="#D45C48"/>
<path d="M41.7741 28.376V31.757C41.5843 32.0081 41.346 32.2185 41.0734 32.3757C40.8007 32.5329 40.4992 32.6337 40.1868 32.6721C38.7059 32.8452 37.0986 31.2811 37.0986 31.2811V28.6189L41.7741 28.376Z" fill="#FBA691"/>
<path d="M41.7741 28.376V29.7936C40.9089 30.7553 39.3715 30.9949 37.0986 30.6588V28.6056L41.7741 28.376Z" fill="#FB876B"/>
<path d="M33.751 22.303C33.751 22.4893 33.7776 22.6757 33.7976 22.8653C33.8442 23.3412 33.9107 23.8304 33.9972 24.3162C33.9972 24.3162 33.9972 24.3495 33.9972 24.3662C34.4265 26.7222 35.3916 29.025 37.4714 29.7804C42.1802 31.4609 43.8607 27.4244 44.5329 25.0716C44.6061 24.8088 44.676 24.5192 44.7326 24.2064V24.1698C44.7958 23.837 44.8524 23.4477 44.9023 23.0683C44.9356 22.7855 44.9688 22.496 44.9955 22.2064C45.062 21.5043 45.1086 20.7988 45.1386 20.1732C45.1712 19.4748 44.983 18.7838 44.6007 18.1984C44.2184 17.613 43.6614 17.1629 43.0088 16.912C41.0787 16.1699 38.1436 15.5809 35.355 17.1549C34.8498 17.4395 34.4278 17.8511 34.1307 18.349C33.8336 18.8469 33.6717 19.4138 33.6611 19.9935C33.6645 20.6457 33.6744 21.4444 33.751 22.303Z" fill="#FBA691"/>
<path d="M33.751 22.3026C33.751 22.4889 33.7776 22.6753 33.7976 22.8649C33.8442 23.3408 33.9107 23.83 33.9972 24.3159C33.9972 24.3159 33.9972 24.3491 33.9972 24.3658C34.4265 26.7218 35.3916 29.0246 37.4714 29.78C42.1802 31.4605 43.8607 27.424 44.5329 25.0713C44.6061 24.8084 44.676 24.5188 44.7326 24.206V24.1694C44.7958 23.8367 44.8524 23.4473 44.9023 23.0679C44.9356 22.7851 44.9688 22.4956 44.9955 22.2061L44.29 22.3891C44.087 23.4573 43.7842 25.008 43.3915 25.7335C42.7725 24.226 39.3416 25.4706 39.3416 25.4706C39.3416 25.4706 36.2801 24.3824 35.2451 25.4706C34.8761 24.4643 34.565 23.4376 34.3134 22.3957L33.751 22.3026ZM39.2584 26.0296C41.7309 25.6969 42.3432 26.3225 42.4597 27.0513C41.8976 27.6719 41.1648 28.1129 40.3532 28.3191C39.508 28.5088 37.7909 28.4922 36.5363 27.5072C36.4132 26.9414 36.2534 25.2776 39.2451 26.0296H39.2584Z" fill="#2E3052"/>
<path d="M37.7434 22.5526C37.7434 22.8853 37.567 23.1682 37.3507 23.1682C37.1344 23.1682 36.958 22.892 36.958 22.5526C36.958 22.2131 37.1344 21.9336 37.3507 21.9336C37.567 21.9336 37.7434 22.2098 37.7434 22.5526Z" fill="#2E3052"/>
<path d="M42.2967 22.5526C42.2967 22.8853 42.1236 23.1682 41.9073 23.1682C41.691 23.1682 41.5146 22.892 41.5146 22.5526C41.5146 22.2131 41.6877 21.9336 41.9073 21.9336C42.127 21.9336 42.2967 22.2098 42.2967 22.5526Z" fill="#2E3052"/>
<path d="M43.0158 20.4324C43.0158 20.4324 41.7779 19.9432 40.8262 20.3559L40.9193 20.885C40.9193 20.885 42.3203 20.7685 43.0258 21.0514C43.0956 20.8504 43.0921 20.6311 43.0158 20.4324Z" fill="#2E3052"/>
<path d="M35.8008 20.4324C35.8008 20.4324 37.0387 19.9432 37.9938 20.3559L37.8973 20.885C37.8973 20.885 36.4963 20.7685 35.7908 21.0514C35.7227 20.8501 35.7262 20.6314 35.8008 20.4324Z" fill="#2E3052"/>
<path d="M39.4977 25.2279C39.31 25.2453 39.1208 25.2295 38.9386 25.1813C38.9044 25.1669 38.8765 25.1406 38.8602 25.1072C38.8439 25.0738 38.8403 25.0357 38.8501 24.9998C38.8599 24.964 38.8824 24.9329 38.9133 24.9125C38.9443 24.892 38.9817 24.8834 39.0185 24.8884C39.2187 24.9513 39.4342 24.9454 39.6308 24.8718C39.6514 24.8531 39.6672 24.8297 39.677 24.8037C39.6869 24.7777 39.6904 24.7497 39.6874 24.7221C39.6018 23.9509 39.4774 23.1845 39.3146 22.4259C39.3103 22.4064 39.3098 22.3863 39.3133 22.3667C39.3168 22.347 39.3242 22.3283 39.3351 22.3115C39.3459 22.2948 39.36 22.2804 39.3765 22.2692C39.393 22.258 39.4116 22.2501 39.4311 22.2462C39.4704 22.2383 39.5111 22.246 39.5447 22.2678C39.5783 22.2896 39.602 22.3236 39.6108 22.3627C39.7779 23.1398 39.9045 23.9251 39.9902 24.7154C39.9952 24.7904 39.9821 24.8656 39.952 24.9345C39.9218 25.0034 39.8756 25.0641 39.8171 25.1114C39.7234 25.1788 39.6128 25.2191 39.4977 25.2279Z" fill="#FB876B"/>
<path d="M37.4111 26.1396C37.5343 26.7619 37.9469 27.9133 39.3346 27.9133C40.7222 27.9133 41.1183 26.8618 41.2514 26.1396H37.4111Z" fill="white"/>
<path d="M44.9825 22.3885H44.2936C44.3161 21.6759 44.1856 20.9667 43.9109 20.3087C43.4417 19.0475 44.44 18.4917 43.6314 17.8594C42.8228 17.2272 40.8095 17.5 39.4085 17.4535C38.0075 17.4069 35.7479 17.4268 35.1856 17.5566C34.6232 17.6864 34.936 18.5949 35.139 19.3037C35.342 20.0125 34.4734 20.7945 34.317 21.53C34.2783 21.8148 34.2783 22.1036 34.317 22.3885H33.7513C33.6814 21.4967 33.6714 20.6681 33.6847 19.9925C33.6956 19.4137 33.8572 18.8478 34.1537 18.3505C34.4501 17.8533 34.8712 17.442 35.3752 17.1573C38.1572 15.5799 41.089 16.159 43.0291 16.911C43.6817 17.162 44.2386 17.6121 44.6209 18.1975C45.0032 18.7829 45.1914 19.4738 45.1588 20.1722C45.1089 20.8511 45.0657 21.6165 44.9825 22.3885Z" fill="#2E3052"/>
<path d="M52.3158 25.3162L27.7393 55.0664L48.2894 72.0428L72.866 42.2926L52.3158 25.3162Z" fill="#FFAA01"/>
<path d="M52.3167 25.3174L53.6345 26.4056L54.5296 52.169L29.059 56.1524L27.7412 55.0642L53.2584 51.1175L52.3167 25.3174Z" fill="#F88800"/>
<path d="M48.2967 51.8398L49.0022 71.1774L48.2901 72.0393L47.7676 71.6067L47.0488 51.8864L48.2967 51.8398Z" fill="#F88800"/>
<path d="M72.4125 41.916L72.8651 42.2887L72.0897 43.2305L52.9684 46.1855L52.7754 44.9509L72.4125 41.916Z" fill="#F88800"/>
<path d="M27.7412 55.0646L53.2584 51.1179L52.3167 25.3145L27.7412 55.0646Z" fill="#FDCC50"/>
<path d="M47.94 62.565H48.6488C48.9479 62.56 49.2391 62.4688 49.4876 62.3023C49.7361 62.1358 49.9313 61.9012 50.0498 61.6266C50.1718 61.331 50.3095 61.0422 50.4624 60.7613C50.7952 60.3187 51.697 59.5767 52.0364 59.5534C52.3759 59.5301 52.3126 60.1623 52.073 60.4385C51.7623 60.7457 51.4876 61.0873 51.2544 61.4568C51.0514 61.8462 52.9183 62.6382 53.667 62.8245C54.4158 63.0109 55.7469 62.6016 55.8767 63.2272C56.0065 63.8528 55.0115 63.946 55.0115 63.946C55.0115 63.946 55.3043 64.5117 54.479 64.9776C54.5168 65.1422 54.4991 65.3146 54.4287 65.4681C54.3583 65.6216 54.2391 65.7475 54.0897 65.8262C54.1087 66.0145 54.064 66.2039 53.9626 66.3638C53.8612 66.5237 53.7091 66.6449 53.5306 66.708C52.9116 66.8944 50.9782 67.4535 47.1846 65.1506L47.94 62.565Z" fill="#FBA691"/>
<path d="M34.9226 46.4592C36.3535 51.8735 37.7612 54.2662 37.7612 54.2662C39.1093 56.1304 40.77 57.7471 42.6696 59.0448C44.6012 60.3257 46.6008 61.501 48.6596 62.5656C48.024 63.3942 47.5747 65.0281 47.821 65.5173C40.1671 65.5173 33.455 58.2561 33.455 58.2561C28.094 48.9384 27.7413 41.3245 27.8311 38.5558C27.8543 37.5803 28.1494 36.6307 28.683 35.8138C28.9305 35.3939 29.287 35.049 29.7146 34.8154C30.4585 35.1462 31.121 35.6358 31.6556 36.2497C32.1902 36.8637 32.5841 37.5872 32.8095 38.3695C33.5981 41.0616 34.9226 46.4592 34.9226 46.4592Z" fill="#007FE9"/>
<path d="M69.0483 46.9384C69.0483 46.9384 67.3445 46.3361 66.5625 46.6622C65.7804 46.9884 67.9501 48.1631 67.9501 48.1631C67.9501 48.1631 65.3179 46.7621 64.862 47.3278C64.4061 47.8935 66.9252 49.3245 66.9252 49.3245C66.9252 49.3245 64.9984 48.6589 64.5958 49.0449C64.1931 49.4309 66.03 50.569 66.03 50.569C66.03 50.569 64.446 50.1897 64.1166 50.4559C63.7871 50.7221 65.1881 51.8535 66.0799 52.1497C66.9718 52.4459 67.1115 51.1947 67.1115 51.1947C67.1115 51.1947 67.9501 50.4592 67.837 49.9467C67.837 49.9467 68.7055 49.3611 68.7688 48.7621C68.7521 48.7587 69.9767 47.6805 69.0483 46.9384Z" fill="#FBA691"/>
</svg>
